<svg xmlns="http://www.w3.org/2000/svg" enable-background="new 0 0 47.5 47.5" viewBox="0 0 47.5 47.5"><defs><clipPath id="a" clipPathUnits="userSpaceOnUse"><path d="M 0,38 38,38 38,0 0,0 0,38 Z"/></clipPath></defs><g clip-path="url(#a)" transform="matrix(1.25 0 0 -1.25 0 47.5)"><path fill="#5c913b" d="m 0,0 c -0.943,-2.125 -1.472,-4.466 -1.472,-6.928 0,-9.665 8.059,-17.5 18,-17.5 7.746,0 14.33,4.767 16.868,11.441 L 0,0 Z" transform="translate(3.472 30.428)"/><path fill="#ffe8b6" d="m 0,0 c -0.853,-1.902 -1.332,-3.998 -1.332,-6.205 0,-8.59 7.164,-15.555 16,-15.555 6.905,0 12.77,4.26 15.013,10.218 L 0,0 Z" transform="translate(5.332 29.705)"/><path fill="#dd2e44" d="m 0,0 c -0.761,-1.678 -1.191,-3.53 -1.191,-5.481 0,-7.518 6.268,-13.612 14,-13.612 6.063,0 11.21,3.753 13.156,8.995 L 0,0 Z" transform="translate(7.19 28.981)"/><path d="m 0,0 c -0.307,-0.46 -0.741,-0.708 -0.971,-0.555 -0.23,0.154 -0.168,0.65 0.139,1.11 0.307,0.46 0.741,0.708 0.971,0.554 C 0.369,0.956 0.307,0.46 0,0" transform="translate(10.916 22.723)"/><path d="m 0,0 c -0.307,-0.46 -0.741,-0.708 -0.971,-0.555 -0.23,0.154 -0.168,0.65 0.139,1.11 0.307,0.46 0.741,0.708 0.971,0.554 C 0.369,0.956 0.307,0.46 0,0" transform="translate(16.916 21.723)"/><path d="m 0,0 c 0.05,-0.551 -0.132,-1.016 -0.406,-1.041 -0.276,-0.025 -0.538,0.4 -0.588,0.951 -0.051,0.551 0.132,1.016 0.406,1.04 C -0.312,0.977 -0.05,0.552 0,0" transform="translate(21.998 17.045)"/><path d="m 0,0 c 0.05,-0.551 -0.132,-1.016 -0.406,-1.041 -0.276,-0.025 -0.538,0.4 -0.588,0.951 -0.05,0.551 0.132,1.016 0.406,1.04 C -0.312,0.977 -0.05,0.552 0,0" transform="translate(12.998 19.045)"/><path d="m 0,0 c -0.333,-0.441 -0.78,-0.663 -1,-0.497 -0.222,0.166 -0.129,0.658 0.204,1.099 0.334,0.441 0.781,0.663 1,0.497 C 0.426,0.933 0.334,0.441 0,0" transform="translate(16.9 13.7)"/><path d="m 0,0 c 0.272,-0.481 0.299,-0.979 0.06,-1.115 -0.242,-0.137 -0.657,0.142 -0.929,0.624 -0.274,0.48 -0.299,0.978 -0.059,1.115 C -0.687,0.762 -0.273,0.482 0,0" transform="translate(24.936 13.245)"/><path d="M 0,0 C 0.303,-0.463 0.362,-0.958 0.131,-1.109 -0.1,-1.262 -0.532,-1.01 -0.835,-0.547 -1.138,-0.085 -1.196,0.411 -0.966,0.562 -0.735,0.715 -0.303,0.464 0,0" transform="translate(17.918 18.273)"/><path d="m 0,0 c -0.333,-0.441 -0.78,-0.663 -1.001,-0.497 -0.221,0.166 -0.129,0.658 0.205,1.099 0.333,0.442 0.78,0.663 1,0.497 C 0.426,0.933 0.335,0.441 0,0" transform="translate(26.9 16.7)"/></g></svg>